<?xml version="1.0" encoding="utf-8"?>
<!-- Generator: Adobe Illustrator 19.0.0, SVG Export Plug-In . SVG Version: 6.00 Build 0)  -->
<svg version="1.1" id="Layer_1" xmlns="http://www.w3.org/2000/svg" xmlns:xlink="http://www.w3.org/1999/xlink" x="0px" y="0px"
	 viewBox="0 0 200 200" style="enable-background:new 0 0 200 200;" xml:space="preserve">
<style type="text/css">
	.st0{fill:url(#XMLID_7_);}
	.st1{fill:url(#XMLID_14_);}
</style>
<g id="XMLID_534_">
	<linearGradient id="XMLID_7_" gradientUnits="userSpaceOnUse" x1="101.2899" y1="44.946" x2="101.2899" y2="146.1563">
		<stop  offset="0" style="stop-color:#FFDC97"/>
		<stop  offset="1" style="stop-color:#FFC867"/>
	</linearGradient>
	<path id="XMLID_538_" class="st0" d="M136.9,91.1H92.4v17.9h26v8.9H83.5V82.1h53.4l0,0c0-9.9-8-17.9-17.9-17.9H83.5
		c-9.9,0-17.9,8-17.9,17.9v35.7c0,9.9,8,17.9,17.9,17.9h35.5c9.9,0,17.9-8,17.9-17.9V91.1z"/>
	<linearGradient id="XMLID_14_" gradientUnits="userSpaceOnUse" x1="101.2889" y1="44.946" x2="101.2889" y2="146.1563">
		<stop  offset="0" style="stop-color:#FFDC97"/>
		<stop  offset="1" style="stop-color:#FFC867"/>
	</linearGradient>
	<path id="XMLID_535_" class="st1" d="M38.9,82.5v35c0,24.8,20.1,45,45,45h34.9c24.8,0,45-20.1,45-45v-35c0-24.8-20.1-45-45-45H83.9
		C59,37.5,38.9,57.6,38.9,82.5z M118.4,144.6H84.1c-15.1,0-27.4-12.3-27.4-27.4V82.8c0-15.1,12.3-27.4,27.4-27.4h34.3
		c15.1,0,27.4,12.3,27.4,27.4v34.5C145.8,132.4,133.6,144.6,118.4,144.6z"/>
</g>
</svg>
