<?xml version="1.0" encoding="utf-8"?>
<!-- Generator: Adobe Illustrator 19.0.0, SVG Export Plug-In . SVG Version: 6.00 Build 0)  -->
<svg version="1.1" id="Layer_1" xmlns="http://www.w3.org/2000/svg" xmlns:xlink="http://www.w3.org/1999/xlink" x="0px" y="0px"
	 viewBox="-439 861 200 200" style="enable-background:new -439 861 200 200;" xml:space="preserve">
<style type="text/css">
	.st0{fill:url(#XMLID_2_);}
</style>
<linearGradient id="XMLID_2_" gradientUnits="userSpaceOnUse" x1="-339" y1="874.4" x2="-339" y2="1051.6" gradientTransform="matrix(1 0 0 -1 0 1924)">
	<stop  offset="0" style="stop-color:#FFB824"/>
	<stop  offset="0.1648" style="stop-color:#FFBA29"/>
	<stop  offset="0.3598" style="stop-color:#FFBE37"/>
	<stop  offset="0.5701" style="stop-color:#FFC64F"/>
	<stop  offset="0.7896" style="stop-color:#FFD070"/>
	<stop  offset="1" style="stop-color:#FFDC97"/>
</linearGradient>
<path id="XMLID_1517_" class="st0" d="M-296.2,872.4h-44.6c-36.1,0-65.4,29.3-65.4,65.4v44.6c0,37.1,30.1,67.2,67.2,67.2
	s67.2-30.1,67.2-67.2v-85.5v-24.4L-296.2,872.4L-296.2,872.4z M-296.2,982.4c0,23.6-19.1,42.8-42.8,42.8
	c-23.7,0-42.8-19.1-42.8-42.8v-44.5c0-22.7,18.4-41.1,41.1-41.1h44.5C-296.2,896.8-296.2,982.4-296.2,982.4z M-339.9,909.1h31.4
	v24.4H-340c-2.8,0-5.1,2.3-5.1,5.1v43.8c0,3.4,2.7,6.1,6.1,6.1c3.4,0,6.1-2.7,6.1-6.1v-36.6h24.4v36.6c0,16.9-13.7,30.5-30.5,30.5
	c-16.8,0-30.5-13.7-30.5-30.5v-43.7C-369.5,922.3-356.3,909.1-339.9,909.1z"/>
</svg>
